<?xml version="1.0" encoding="utf-8"?>
<!-- Generator: Adobe Illustrator 16.0.0, SVG Export Plug-In . SVG Version: 6.00 Build 0)  -->
<!DOCTYPE svg PUBLIC "-//W3C//DTD SVG 1.1//EN" "http://www.w3.org/Graphics/SVG/1.1/DTD/svg11.dtd">
<svg version="1.1" id="github" xmlns="http://www.w3.org/2000/svg" xmlns:xlink="http://www.w3.org/1999/xlink" x="0px" y="0px"
	 width="587.52px" height="587.52px" viewBox="12.24 102.24 587.52 587.52" enable-background="new 12.24 102.24 587.52 587.52"
	 xml:space="preserve">
<circle fill="#00AD56" cx="306" cy="396" r="293.76"/>
<path fill="#F7F7F7" d="M306,246.06c-82.81,0-149.94,67.13-149.94,149.94S223.19,545.94,306,545.94S455.94,478.81,455.94,396
	S388.81,246.06,306,246.06z M395.043,485.043c-11.573,11.573-25.043,20.655-40.034,26.998c-3.81,1.609-7.678,3.026-11.598,4.244
	v-22.473c0-11.812-4.051-20.498-12.154-26.062c5.077-0.489,9.737-1.172,13.984-2.05c4.247-0.879,8.736-2.148,13.471-3.811
	c4.733-1.661,8.98-3.638,12.738-5.93c3.758-2.295,7.372-5.272,10.836-8.933c3.464-3.659,6.37-7.809,8.712-12.444
	c2.341-4.637,4.198-10.202,5.563-16.692c1.365-6.49,2.051-13.642,2.051-21.451c0-15.131-4.93-28.014-14.789-38.657
	c4.488-11.714,4.002-24.453-1.463-38.216l-3.663-0.438c-2.536-0.294-7.103,0.78-13.69,3.222s-13.984,6.441-22.182,12.007
	c-11.619-3.222-23.672-4.832-36.169-4.832c-12.592,0-24.6,1.61-36.023,4.832c-5.171-3.516-10.08-6.417-14.715-8.712
	s-8.345-3.855-11.129-4.688c-2.781-0.829-5.367-1.343-7.76-1.539c-2.393-0.196-3.929-0.242-4.612-0.147
	c-0.682,0.095-1.172,0.196-1.462,0.294c-5.468,13.862-5.955,26.604-1.463,38.216c-9.859,10.64-14.789,23.525-14.789,38.657
	c0,7.81,0.683,14.961,2.05,21.451c1.368,6.49,3.222,12.056,5.563,16.692c2.341,4.636,5.248,8.785,8.712,12.444
	c3.464,3.66,7.078,6.638,10.835,8.933c3.758,2.298,8.005,4.271,12.739,5.93c4.734,1.662,9.223,2.929,13.47,3.811
	c4.247,0.878,8.908,1.563,13.984,2.05c-8.005,5.468-12.008,14.155-12.008,26.062v22.91c-4.421-1.315-8.779-2.87-13.06-4.682
	c-14.991-6.343-28.461-15.425-40.034-26.998c-11.573-11.573-20.655-25.043-26.999-40.034c-6.558-15.508-9.884-31.995-9.884-49.009
	s3.326-33.501,9.887-49.009c6.344-14.991,15.426-28.461,26.999-40.034s25.043-20.655,40.034-26.999
	c15.508-6.561,31.995-9.887,49.009-9.887s33.501,3.326,49.009,9.887c14.994,6.344,28.461,15.426,40.034,26.999
	s20.655,25.043,26.998,40.034c6.558,15.511,9.884,31.998,9.884,49.009s-3.326,33.501-9.887,49.009
	C415.695,460,406.613,473.47,395.043,485.043L395.043,485.043z"/>
</svg>
