<?xml version="1.0" encoding="utf-8"?>
<!-- Generator: Adobe Illustrator 16.0.0, SVG Export Plug-In . SVG Version: 6.00 Build 0)  -->
<!DOCTYPE svg PUBLIC "-//W3C//DTD SVG 1.1//EN" "http://www.w3.org/Graphics/SVG/1.1/DTD/svg11.dtd">
<svg version="1.1" id="linkedin" xmlns="http://www.w3.org/2000/svg" xmlns:xlink="http://www.w3.org/1999/xlink" x="0px" y="0px"
	 width="587.52px" height="587.52px" viewBox="12.24 102.24 587.52 587.52" enable-background="new 12.24 102.24 587.52 587.52"
	 xml:space="preserve">
<circle fill="#00AD56" cx="306" cy="396" r="293.76"/>
<path fill="#F7F7F7" d="M405.569,246.06H206.431c-27.702,0-50.371,22.668-50.371,50.371v199.139
	c0,27.702,22.668,50.371,50.371,50.371h199.139c27.702,0,50.371-22.669,50.371-50.371V296.431
	C455.94,268.729,433.271,246.06,405.569,246.06z M268.515,489.713H231.03V358.515h37.485V489.713z M249.772,339.772
	c-10.352,0-18.743-8.391-18.743-18.743c0-10.352,8.391-18.742,18.743-18.742s18.743,8.391,18.743,18.742
	C268.515,331.382,260.125,339.772,249.772,339.772z M399.713,489.713h-37.485v-74.971c0-10.352-8.391-18.742-18.742-18.742
	c-10.353,0-18.743,8.391-18.743,18.742v74.971h-37.485V358.515h37.485v23.274c7.729-10.619,19.551-23.274,32.801-23.274
	c23.292,0,42.173,20.979,42.173,46.855L399.713,489.713L399.713,489.713z"/>
</svg>
